PathFileType	4	(X/Y/Z)	/Users/rkoike/Documents/python/sports2d/webcam_20250606_145141/webcam_20250606_145141_px_person01.trc
DataRate	CameraRate	NumFrames	NumMarkers	Units	OrigDataRate	OrigDataStartFrame	OrigNumFrames
30	30	9	22	m	30	2013	4026
Frame#	Time	Hip			RHip			RKnee			RAnkle			RBigToe			RSmallToe			RHeel			LHip			LKnee			LAnkle			LBigToe			LSmallToe			LHeel			Neck			Head			Nose			RShoulder			RElbow			RWrist			LShoulder			LElbow			LWrist			
		X1	Y1	Z1	X2	Y2	Z2	X3	Y3	Z3	X4	Y4	Z4	X5	Y5	Z5	X6	Y6	Z6	X7	Y7	Z7	X8	Y8	Z8	X9	Y9	Z9	X10	Y10	Z10	X11	Y11	Z11	X12	Y12	Z12	X13	Y13	Z13	X14	Y14	Z14	X15	Y15	Z15	X16	Y16	Z16	X17	Y17	Z17	X18	Y18	Z18	X19	Y19	Z19	X20	Y20	Z20	X21	Y21	Z21	X22	Y22	Z22
2013	67.11667080745342	592.2977824788179	754.5368005412383	0.0	479.94133522332805	751.5804138152665	0.0	511.81152978620366	716.8849916545569	0.0	409.3192687797319	725.0506818586291	0.0	1135.5714668227663	293.9095748762961	0.0	1249.8014322916667	114.4531307220459	0.0			0.0	711.6960420765006	744.7160488307512	0.0	787.1488693089332	729.3852656194381	0.0	1033.7695312500002	234.10156536102298	0.0	1210.2476546499465	390.76007607248084	0.0	1249.801432291667	144.36523938179016	0.0	1173.6548700871806	503.36829283057574	0.0	578.2358815676685	378.7461949869512	0.0	529.874587010635	126.13733519639545	0.0	523.1465738605863	265.4386783609908	0.0	411.7094366147113	469.1723306527926	0.0	237.5241970104258	659.0567751860277	0.0	151.55479337356164	570.4030736637208	0.0	777.9448695036178	459.531963616136	0.0	926.8216197355902	703.920098602074	0.0	898.1433874391777	672.3704231629473	0.0
2014	67.15001242236025	586.6887066690758	780.9080320830592	0.0	479.7920116758955	770.0414352568846	0.0	511.81152978620366	716.8849916545569	0.0	409.3192687797319	725.0506818586291	0.0	1135.5714668227663	293.9095748762961	0.0	1249.8014322916667	114.45313072204588	0.0			0.0	712.7897066911341	761.9278007334196	0.0	787.1488693089333	729.3852656194381	0.0	1033.7695312500002	234.10156536102295	0.0	1210.2476546499465	390.76007607248084	0.0	1249.801432291667	144.36523938179016	0.0	1173.6548700871806	503.36829283057574	0.0	582.4907115918637	375.3141030603752	0.0	528.9451095001028	125.30773395085603	0.0	524.3770747883581	268.8418873010369	0.0	415.51284064483366	470.5274357950503	0.0	239.62381072852892	657.144101752903	0.0	149.81625665827565	561.1979788178838	0.0	787.2678093035152	464.968307123696	0.0	939.1879462420815	713.8035025957117	0.0	898.4480074544086	664.4169370344387	0.0
2015	67.18335403726708	578.3550435387507	794.3950159754561	0.0	475.3934310739938	772.3536860685623	0.0	511.81152978620366	716.8849916545569	0.0	409.3192687797319	725.0506818586291	0.0	1135.5714668227663	293.9095748762961	0.0	1249.8014322916667	114.45313072204588	0.0			0.0	715.7228352668777	763.9826470600023	0.0	787.1488693089333	729.3852656194381	0.0	1033.7695312500002	234.10156536102298	0.0	1210.2476546499465	390.76007607248084	0.0	1249.801432291667	144.36523938179016	0.0	1173.6548700871806	503.36829283057574	0.0	585.9974477040881	375.38397246762906	0.0	529.0797668541932	126.35529782244421	0.0	524.196374212829	269.1758326403916	0.0	419.0360666847688	471.6532096699809	0.0	245.0719075443033	661.6903776252759	0.0	159.1519846617145	555.1201607704787	0.0	794.4936625262258	467.44542322681355	0.0	946.5552598390937	719.0733439347736	0.0	893.9767691397343	652.5095829911423	0.0
2016	67.21669565217391	576.956649538963	800.285697187052	0.0	477.4780739562559	775.8870005543359	0.0	511.81152978620366	716.8849916545569	0.0	409.3192687797319	725.0506818586291	0.0	1135.5714668227663	293.9095748762961	0.0	1249.8014322916667	114.45313072204588	0.0			0.0	720.8793677519698	767.7000779548545	0.0	787.1488693089333	729.3852656194381	0.0	1033.7695312500002	234.10156536102298	0.0	1210.2476546499465	390.76007607248084	0.0	1249.801432291667	144.36523938179016	0.0	1173.6548700871806	503.36829283057574	0.0	588.4213575476745	376.9186340672659	0.0	528.8900439748052	127.5143104695914	0.0	524.1988425260029	268.94149388779886	0.0	423.8830222770487	470.08671579372816	0.0	256.0053774738004	672.615926788081	0.0	177.47941772792828	548.5422686193413	0.0	797.8178502723811	461.0435416180176	0.0	946.2974533127249	721.381307224053	0.0	880.1287792510633	632.8156803651281	0.0
2017	67.25003726708074	583.7354312390432	804.641720223329	0.0	487.5303714852456	786.4380244054821	0.0	511.81152978620366	716.8849916545569	0.0	409.3192687797319	725.0506818586291	0.0	1135.5714668227663	293.9095748762961	0.0	1249.8014322916667	114.4531307220459	0.0			0.0	725.9223783158741	779.8992379323986	0.0	787.1488693089332	729.3852656194381	0.0	1033.7695312500002	234.10156536102298	0.0	1210.2476546499465	390.76007607248084	0.0	1249.801432291667	144.36523938179016	0.0	1173.6548700871806	503.36829283057574	0.0	590.2894200621841	378.5723577239445	0.0	528.9093787311778	127.67768699946073	0.0	525.1554600597632	269.5945145277765	0.0	429.2927515974068	466.82646507827826	0.0	267.6489365363979	686.2105392581796	0.0	198.89085969085	540.2056678365072	0.0	797.2609603373488	449.3394287696589	0.0	943.3938991839713	723.4689214112133	0.0	861.8151097062685	605.8013390085341	0.0
2018	67.28337888198757	589.1874221000058	800.3628505242625	0.0	494.02087465262565	786.0092683825253	0.0	511.81152978620366	716.8849916545569	0.0	409.3192687797319	725.0506818586291	0.0	1135.5714668227663	293.9095748762961	0.0	1249.8014322916667	114.45313072204588	0.0			0.0	727.0923275546564	783.2475477052434	0.0	787.1488693089333	729.3852656194381	0.0	1033.7695312500002	234.10156536102295	0.0	1210.2476546499465	390.76007607248084	0.0	1249.801432291667	144.36523938179016	0.0	1173.6548700871806	503.36829283057574	0.0	591.6996637459173	379.8835816550398	0.0	531.5904828443187	127.98071680185282	0.0	526.2849695346453	269.84140973767387	0.0	432.7750007554546	465.4990463833981	0.0	272.83352622501627	694.3335292955343	0.0	216.9532414614725	532.5075135591626	0.0	792.6378717929535	441.83450453087386	0.0	944.5489735938143	725.0733425821824	0.0	848.3137043110031	576.8178735448498	0.0
2019	67.3167204968944	588.3644459687881	786.4188973920334	0.0	491.4156536695777	769.0952336366256	0.0	511.81152978620366	716.8849916545569	0.0	409.3192687797319	725.0506818586291	0.0	1135.5714668227663	293.9095748762961	0.0	1249.8014322916667	114.45313072204588	0.0			0.0	724.1975837849299	770.774325373138	0.0	787.1488693089333	729.3852656194381	0.0	1033.7695312500002	234.10156536102298	0.0	1210.2476546499465	390.76007607248084	0.0	1249.801432291667	144.36523938179016	0.0	1173.6548700871806	503.36829283057574	0.0	592.124920072441	380.9600584216988	0.0	536.5771449871531	129.03745279784476	0.0	527.0902300561892	269.4502874496179	0.0	433.16323184207357	466.8400200410897	0.0	268.60372136891965	691.0733290523469	0.0	227.710852159837	523.549609562691	0.0	785.497234675998	442.0403881864807	0.0	949.6977142561072	724.8565252643122	0.0	841.812830573689	553.921128891255	0.0
2020	67.35006211180124	585.64399482429	774.5740972889664	0.0	486.18063890276954	752.8908476144717	0.0	511.81152978620366	716.8849916545569	0.0	409.3192687797319	725.0506818586291	0.0	1135.5714668227663	293.9095748762961	0.0	1249.8014322916667	114.45313072204588	0.0			0.0	721.2141319784492	757.1557040932862	0.0	787.1488693089333	729.3852656194381	0.0	1033.7695312500002	234.10156536102298	0.0	1210.2476546499465	390.76007607248084	0.0	1249.801432291667	144.36523938179016	0.0	1173.6548700871806	503.36829283057574	0.0	591.3926238079828	382.29207509756895	0.0	540.4138932083541	129.93961422581657	0.0	527.9442486450137	270.0626984376233	0.0	431.81397438824587	468.0414452269488	0.0	258.30352520946417	678.1120655883389	0.0	231.66719365043414	508.10441592842056	0.0	779.5256641951861	445.28954132735464	0.0	953.3112708085216	722.9556072435475	0.0	836.7690416125165	542.4004502070907	0.0
2021	67.38340372670807	585.263044764906	771.6961648393678	0.0	484.2618453389095	748.7868106467373	0.0	511.81152978620366	716.8849916545569	0.0	409.3192687797319	725.0506818586291	0.0	1135.5714668227663	293.9095748762961	0.0	1249.8014322916667	114.4531307220459	0.0			0.0	720.6438644013491	753.2334603582267	0.0	787.1488693089332	729.3852656194381	0.0	1033.7695312500002	234.10156536102298	0.0	1210.2476546499465	390.76007607248084	0.0	1249.801432291667	144.36523938179016	0.0	1173.6548700871806	503.36829283057574	0.0	589.9942290455102	384.047571751693	0.0	541.4918544077468	130.06798798993938	0.0	529.1432832825855	272.3457769097192	0.0	430.45366822310314	467.3465593544437	0.0	246.85551143046615	661.3705421817833	0.0	232.41096380440547	485.9023190856205	0.0	776.3646109712993	447.03404701423466	0.0	952.7832304940348	720.4593744950485	0.0	828.9908416974449	539.6585622630056	0.0
